<?xml version="1.0" encoding="UTF-8"?><svg id="Layer_1" xmlns="http://www.w3.org/2000/svg" viewBox="0 0 100 100"><polygon points="90.83 26.42 90.83 12.95 79.17 6.22 67.5 12.95 67.5 26.42 79.17 33.16 90.83 26.42" fill="none" stroke="#f2f2f2" stroke-miterlimit="10" stroke-width="5"/><polygon points="67.5 26.42 67.5 12.95 55.83 6.22 44.17 12.95 44.17 26.42 55.83 33.16 67.5 26.42" fill="none" stroke="#f2f2f2" stroke-miterlimit="10" stroke-width="5"/><polygon points="44.17 26.42 44.17 12.95 32.5 6.22 20.83 12.95 20.83 26.42 32.5 33.16 44.17 26.42" fill="none" stroke="#f2f2f2" stroke-miterlimit="10" stroke-width="5"/><polygon points="90.83 66.84 90.83 53.37 79.17 46.63 67.5 53.37 67.5 66.84 79.17 73.58 90.83 66.84" fill="none" stroke="#f2f2f2" stroke-miterlimit="10" stroke-width="5"/><polygon points="67.5 66.84 67.5 53.37 55.83 46.63 44.17 53.37 44.17 66.84 55.83 73.58 67.5 66.84" fill="none" stroke="#f2f2f2" stroke-miterlimit="10" stroke-width="5"/><polygon points="44.17 66.84 44.17 53.37 32.5 46.63 20.83 53.37 20.83 66.84 32.5 73.58 44.17 66.84" fill="none" stroke="#f2f2f2" stroke-miterlimit="10" stroke-width="5"/><polygon points="79.17 46.63 79.17 33.16 67.5 26.42 55.83 33.16 55.83 46.63 67.5 53.37 79.17 46.63" fill="#f2f2f2" stroke="#f2f2f2" stroke-miterlimit="10" stroke-width="5"/><polygon points="55.83 46.63 55.83 33.16 44.17 26.42 32.5 33.16 32.5 46.63 44.17 53.37 55.83 46.63" fill="#f2f2f2" stroke="#f2f2f2" stroke-miterlimit="10" stroke-width="5"/><polygon points="32.5 46.63 32.5 33.16 20.83 26.42 9.17 33.16 9.17 46.63 20.83 53.37 32.5 46.63" fill="#f2f2f2" stroke="#f2f2f2" stroke-miterlimit="10" stroke-width="5"/><polygon points="79.17 87.05 79.17 73.58 67.5 66.84 55.83 73.58 55.83 87.05 67.5 93.78 79.17 87.05" fill="#f2f2f2" stroke="#f2f2f2" stroke-miterlimit="10" stroke-width="5"/><polygon points="55.83 87.05 55.83 73.58 44.17 66.84 32.5 73.58 32.5 87.05 44.17 93.78 55.83 87.05" fill="#f2f2f2" stroke="#f2f2f2" stroke-miterlimit="10" stroke-width="5"/><polygon points="32.5 87.05 32.5 73.58 20.83 66.84 9.17 73.58 9.17 87.05 20.83 93.78 32.5 87.05" fill="#f2f2f2" stroke="#f2f2f2" stroke-miterlimit="10" stroke-width="5"/></svg>