<?xml version="1.0" encoding="UTF-8"?><svg id="Layer_1" xmlns="http://www.w3.org/2000/svg" viewBox="0 0 100 100"><polygon points="26.42 9.17 12.95 9.17 6.22 20.83 12.95 32.5 26.42 32.5 33.16 20.83 26.42 9.17" fill="#f2f2f2" stroke="#f2f2f2" stroke-miterlimit="10" stroke-width="5"/><polygon points="26.42 32.5 12.95 32.5 6.22 44.17 12.95 55.83 26.42 55.83 33.16 44.17 26.42 32.5" fill="#f2f2f2" stroke="#f2f2f2" stroke-miterlimit="10" stroke-width="5"/><polygon points="26.42 55.83 12.95 55.83 6.22 67.5 12.95 79.17 26.42 79.17 33.16 67.5 26.42 55.83" fill="#f2f2f2" stroke="#f2f2f2" stroke-miterlimit="10" stroke-width="5"/><polygon points="66.84 9.17 53.37 9.17 46.63 20.83 53.37 32.5 66.84 32.5 73.58 20.83 66.84 9.17" fill="#f2f2f2" stroke="#f2f2f2" stroke-miterlimit="10" stroke-width="5"/><polygon points="66.84 32.5 53.37 32.5 46.63 44.17 53.37 55.83 66.84 55.83 73.58 44.17 66.84 32.5" fill="#f2f2f2" stroke="#f2f2f2" stroke-miterlimit="10" stroke-width="5"/><polygon points="66.84 55.83 53.37 55.83 46.63 67.5 53.37 79.17 66.84 79.17 73.58 67.5 66.84 55.83" fill="#f2f2f2" stroke="#f2f2f2" stroke-miterlimit="10" stroke-width="5"/><polygon points="46.63 20.83 33.16 20.83 26.42 32.5 33.16 44.17 46.63 44.17 53.37 32.5 46.63 20.83" fill="none" stroke="#f2f2f2" stroke-miterlimit="10" stroke-width="5"/><polygon points="46.63 44.17 33.16 44.17 26.42 55.83 33.16 67.5 46.63 67.5 53.37 55.83 46.63 44.17" fill="none" stroke="#f2f2f2" stroke-miterlimit="10" stroke-width="5"/><polygon points="46.63 67.5 33.16 67.5 26.42 79.17 33.16 90.83 46.63 90.83 53.37 79.17 46.63 67.5" fill="none" stroke="#f2f2f2" stroke-miterlimit="10" stroke-width="5"/><polygon points="87.05 20.83 73.58 20.83 66.84 32.5 73.58 44.17 87.05 44.17 93.78 32.5 87.05 20.83" fill="none" stroke="#f2f2f2" stroke-miterlimit="10" stroke-width="5"/><polygon points="87.05 44.17 73.58 44.17 66.84 55.83 73.58 67.5 87.05 67.5 93.78 55.83 87.05 44.17" fill="none" stroke="#f2f2f2" stroke-miterlimit="10" stroke-width="5"/><polygon points="87.05 67.5 73.58 67.5 66.84 79.17 73.58 90.83 87.05 90.83 93.78 79.17 87.05 67.5" fill="none" stroke="#f2f2f2" stroke-miterlimit="10" stroke-width="5"/></svg>