<?xml version="1.0" encoding="UTF-8"?><svg id="Layer_1" xmlns="http://www.w3.org/2000/svg" viewBox="0 0 100 100"><polygon points="73.58 9.17 87.05 9.17 93.78 20.83 87.05 32.5 73.58 32.5 66.84 20.83 73.58 9.17" fill="none" stroke="#f2f2f2" stroke-miterlimit="10" stroke-width="5"/><polygon points="73.58 32.5 87.05 32.5 93.78 44.17 87.05 55.83 73.58 55.83 66.84 44.17 73.58 32.5" fill="none" stroke="#f2f2f2" stroke-miterlimit="10" stroke-width="5"/><polygon points="73.58 55.83 87.05 55.83 93.78 67.5 87.05 79.17 73.58 79.17 66.84 67.5 73.58 55.83" fill="none" stroke="#f2f2f2" stroke-miterlimit="10" stroke-width="5"/><polygon points="33.16 9.17 46.63 9.17 53.37 20.83 46.63 32.5 33.16 32.5 26.42 20.83 33.16 9.17" fill="none" stroke="#f2f2f2" stroke-miterlimit="10" stroke-width="5"/><polygon points="33.16 32.5 46.63 32.5 53.37 44.17 46.63 55.83 33.16 55.83 26.42 44.17 33.16 32.5" fill="none" stroke="#f2f2f2" stroke-miterlimit="10" stroke-width="5"/><polygon points="33.16 55.83 46.63 55.83 53.37 67.5 46.63 79.17 33.16 79.17 26.42 67.5 33.16 55.83" fill="none" stroke="#f2f2f2" stroke-miterlimit="10" stroke-width="5"/><polygon points="53.37 20.83 66.84 20.83 73.58 32.5 66.84 44.17 53.37 44.17 46.63 32.5 53.37 20.83" fill="#f2f2f2" stroke="#f2f2f2" stroke-miterlimit="10" stroke-width="5"/><polygon points="53.37 44.17 66.84 44.17 73.58 55.83 66.84 67.5 53.37 67.5 46.63 55.83 53.37 44.17" fill="#f2f2f2" stroke="#f2f2f2" stroke-miterlimit="10" stroke-width="5"/><polygon points="53.37 67.5 66.84 67.5 73.58 79.17 66.84 90.83 53.37 90.83 46.63 79.17 53.37 67.5" fill="#f2f2f2" stroke="#f2f2f2" stroke-miterlimit="10" stroke-width="5"/><polygon points="12.95 20.83 26.42 20.83 33.16 32.5 26.42 44.17 12.95 44.17 6.22 32.5 12.95 20.83" fill="#f2f2f2" stroke="#f2f2f2" stroke-miterlimit="10" stroke-width="5"/><polygon points="12.95 44.17 26.42 44.17 33.16 55.83 26.42 67.5 12.95 67.5 6.22 55.83 12.95 44.17" fill="#f2f2f2" stroke="#f2f2f2" stroke-miterlimit="10" stroke-width="5"/><polygon points="12.95 67.5 26.42 67.5 33.16 79.17 26.42 90.83 12.95 90.83 6.22 79.17 12.95 67.5" fill="#f2f2f2" stroke="#f2f2f2" stroke-miterlimit="10" stroke-width="5"/></svg>