<?xml version="1.0" encoding="UTF-8" standalone="no"?>
<!-- Created with Inkscape (http://www.inkscape.org/) -->

<svg
   version="1.1"
   id="svg1"
   width="133.33333"
   height="133.33333"
   viewBox="0 0 133.33333 133.33333"
   sodipodi:docname="selectgrids.inkscape.svg"
   inkscape:version="1.4.2 (ebf0e94, 2025-05-08)"
   xmlns:inkscape="http://www.inkscape.org/namespaces/inkscape"
   xmlns:sodipodi="http://sodipodi.sourceforge.net/DTD/sodipodi-0.dtd"
   xmlns="http://www.w3.org/2000/svg"
   xmlns:svg="http://www.w3.org/2000/svg">
  <defs
     id="defs1">
    <clipPath
       clipPathUnits="userSpaceOnUse"
       id="clipPath5">
      <path
         d="M 0,100 H 100 V 0 H 0 Z"
         transform="translate(-83.678802,-61.666701)"
         id="path5" />
    </clipPath>
    <clipPath
       clipPathUnits="userSpaceOnUse"
       id="clipPath7">
      <path
         d="M 0,100 H 100 V 0 H 0 Z"
         transform="translate(-56.735701,-85.000002)"
         id="path7" />
    </clipPath>
    <clipPath
       clipPathUnits="userSpaceOnUse"
       id="clipPath9">
      <path
         d="M 0,100 H 100 V 0 H 0 Z"
         transform="translate(-16.3212,-61.666701)"
         id="path9" />
    </clipPath>
    <clipPath
       clipPathUnits="userSpaceOnUse"
       id="clipPath12">
      <path
         d="M 0,100 H 100 V 0 H 0 Z"
         transform="translate(-61.666702,-83.678802)"
         id="path12" />
    </clipPath>
    <clipPath
       clipPathUnits="userSpaceOnUse"
       id="clipPath14">
      <path
         d="M 0,100 H 100 V 0 H 0 Z"
         transform="translate(-85.000002,-56.735702)"
         id="path14" />
    </clipPath>
    <clipPath
       clipPathUnits="userSpaceOnUse"
       id="clipPath16">
      <path
         d="M 0,100 H 100 V 0 H 0 Z"
         transform="translate(-61.666699,-16.321203)"
         id="path16" />
    </clipPath>
    <clipPath
       clipPathUnits="userSpaceOnUse"
       id="clipPath18">
      <path
         d="M 0,100 H 100 V 0 H 0 Z"
         transform="translate(-110.20898,-52.629002)"
         id="path18" />
    </clipPath>
    <clipPath
       clipPathUnits="userSpaceOnUse"
       id="clipPath20">
      <path
         d="M 0,100 H 100 V 0 H 0 Z"
         transform="translate(-110.20903,-52.629002)"
         id="path20" />
    </clipPath>
    <clipPath
       clipPathUnits="userSpaceOnUse"
       id="clipPath22">
      <path
         d="M 0,100 H 100 V 0 H 0 Z"
         transform="translate(-112.65543,-53.259002)"
         id="path22" />
    </clipPath>
    <clipPath
       clipPathUnits="userSpaceOnUse"
       id="clipPath24">
      <path
         d="M 0,100 H 100 V 0 H 0 Z"
         transform="translate(-60.219002,-50.000001)"
         id="path24" />
    </clipPath>
    <clipPath
       clipPathUnits="userSpaceOnUse"
       id="clipPath26">
      <path
         d="M 0,100 H 100 V 0 H 0 Z"
         transform="translate(-50.000026,-60.219002)"
         id="path26" />
    </clipPath>
    <clipPath
       clipPathUnits="userSpaceOnUse"
       id="clipPath28">
      <path
         d="M 0,100 H 100 V 0 H 0 Z"
         transform="translate(-50.000026,-31.781001)"
         id="path28" />
    </clipPath>
    <clipPath
       clipPathUnits="userSpaceOnUse"
       id="clipPath30">
      <path
         d="M 0,100 H 100 V 0 H 0 Z"
         transform="translate(-60.218977,-50.000001)"
         id="path30" />
    </clipPath>
    <clipPath
       clipPathUnits="userSpaceOnUse"
       id="clipPath32">
      <path
         d="M 0,100 H 100 V 0 H 0 Z"
         transform="translate(-68.219002,-49.999901)"
         id="path32" />
    </clipPath>
    <clipPath
       clipPathUnits="userSpaceOnUse"
       id="clipPath34">
      <path
         d="M 0,100 H 100 V 0 H 0 Z"
         transform="translate(-50.000001,-39.781101)"
         id="path34" />
    </clipPath>
    <clipPath
       clipPathUnits="userSpaceOnUse"
       id="clipPath36">
      <path
         d="M 0,100 H 100 V 0 H 0 Z"
         transform="translate(-60.219027,-50.000001)"
         id="path36" />
    </clipPath>
    <clipPath
       clipPathUnits="userSpaceOnUse"
       id="clipPath38">
      <path
         d="M 0,100 H 100 V 0 H 0 Z"
         transform="translate(-49.999976,-60.219002)"
         id="path38" />
    </clipPath>
    <clipPath
       clipPathUnits="userSpaceOnUse"
       id="clipPath40">
      <path
         d="M 0,100 H 100 V 0 H 0 Z"
         transform="translate(-49.999976,-31.781001)"
         id="path40" />
    </clipPath>
    <clipPath
       clipPathUnits="userSpaceOnUse"
       id="clipPath50">
      <path
         d="M 0,100 H 100 V 0 H 0 Z"
         transform="translate(-46.632076,-32.500001)"
         id="path50" />
    </clipPath>
    <clipPath
       clipPathUnits="userSpaceOnUse"
       id="clipPath52">
      <path
         d="M 0,100 H 100 V 0 H 0 Z"
         transform="translate(-87.046577,-79.166602)"
         id="path52" />
    </clipPath>
    <clipPath
       clipPathUnits="userSpaceOnUse"
       id="clipPath54">
      <path
         d="M 0,100 H 100 V 0 H 0 Z"
         transform="translate(-87.046577,-55.833302)"
         id="path54" />
    </clipPath>
    <clipPath
       clipPathUnits="userSpaceOnUse"
       id="clipPath56">
      <path
         d="M 0,100 H 100 V 0 H 0 Z"
         transform="translate(-87.046577,-32.500001)"
         id="path56" />
    </clipPath>
    <clipPath
       clipPathUnits="userSpaceOnUse"
       id="clipPath58">
      <path
         d="M 0,100 H 100 V 0 H 0 Z"
         transform="translate(-73.575127,-90.833302)"
         id="path58" />
    </clipPath>
    <clipPath
       clipPathUnits="userSpaceOnUse"
       id="clipPath60">
      <path
         d="M 0,100 H 100 V 0 H 0 Z"
         transform="translate(-73.575127,-67.500002)"
         id="path60" />
    </clipPath>
    <clipPath
       clipPathUnits="userSpaceOnUse"
       id="clipPath62">
      <path
         d="M 0,100 H 100 V 0 H 0 Z"
         transform="translate(-73.575127,-44.166601)"
         id="path62" />
    </clipPath>
    <clipPath
       clipPathUnits="userSpaceOnUse"
       id="clipPath64">
      <path
         d="M 0,100 H 100 V 0 H 0 Z"
         transform="translate(-33.160626,-90.833302)"
         id="path64" />
    </clipPath>
    <clipPath
       clipPathUnits="userSpaceOnUse"
       id="clipPath70">
      <path
         d="M 0,100 H 100 V 0 H 0 Z"
         transform="translate(-53.367876,-32.500001)"
         id="path70" />
    </clipPath>
    <clipPath
       clipPathUnits="userSpaceOnUse"
       id="clipPath72">
      <path
         d="M 0,100 H 100 V 0 H 0 Z"
         transform="translate(-12.953375,-79.166602)"
         id="path72" />
    </clipPath>
    <clipPath
       clipPathUnits="userSpaceOnUse"
       id="clipPath74">
      <path
         d="M 0,100 H 100 V 0 H 0 Z"
         transform="translate(-12.953375,-55.833302)"
         id="path74" />
    </clipPath>
    <clipPath
       clipPathUnits="userSpaceOnUse"
       id="clipPath76">
      <path
         d="M 0,100 H 100 V 0 H 0 Z"
         transform="translate(-12.953375,-32.500001)"
         id="path76" />
    </clipPath>
    <clipPath
       clipPathUnits="userSpaceOnUse"
       id="clipPath86">
      <path
         d="M 0,100 H 100 V 0 H 0 Z"
         transform="translate(-32.500001,-46.632101)"
         id="path86" />
    </clipPath>
    <clipPath
       clipPathUnits="userSpaceOnUse"
       id="clipPath88">
      <path
         d="M 0,100 H 100 V 0 H 0 Z"
         transform="translate(-79.166727,-87.046602)"
         id="path88" />
    </clipPath>
    <clipPath
       clipPathUnits="userSpaceOnUse"
       id="clipPath90">
      <path
         d="M 0,100 H 100 V 0 H 0 Z"
         transform="translate(-55.833401,-87.046602)"
         id="path90" />
    </clipPath>
    <clipPath
       clipPathUnits="userSpaceOnUse"
       id="clipPath92">
      <path
         d="M 0,100 H 100 V 0 H 0 Z"
         transform="translate(-32.500001,-87.046602)"
         id="path92" />
    </clipPath>
    <clipPath
       clipPathUnits="userSpaceOnUse"
       id="clipPath94">
      <path
         d="M 0,100 H 100 V 0 H 0 Z"
         transform="translate(-90.833327,-73.575102)"
         id="path94" />
    </clipPath>
    <clipPath
       clipPathUnits="userSpaceOnUse"
       id="clipPath96">
      <path
         d="M 0,100 H 100 V 0 H 0 Z"
         transform="translate(-67.500002,-73.575102)"
         id="path96" />
    </clipPath>
    <clipPath
       clipPathUnits="userSpaceOnUse"
       id="clipPath98">
      <path
         d="M 0,100 H 100 V 0 H 0 Z"
         transform="translate(-44.166676,-73.575102)"
         id="path98" />
    </clipPath>
    <clipPath
       clipPathUnits="userSpaceOnUse"
       id="clipPath100">
      <path
         d="M 0,100 H 100 V 0 H 0 Z"
         transform="translate(-90.833327,-33.160601)"
         id="path100" />
    </clipPath>
    <clipPath
       clipPathUnits="userSpaceOnUse"
       id="clipPath106">
      <path
         d="M 0,100 H 100 V 0 H 0 Z"
         transform="translate(-32.499976,-53.367801)"
         id="path106" />
    </clipPath>
    <clipPath
       clipPathUnits="userSpaceOnUse"
       id="clipPath108">
      <path
         d="M 0,100 H 100 V 0 H 0 Z"
         transform="translate(-79.166702,-12.953298)"
         id="path108" />
    </clipPath>
    <clipPath
       clipPathUnits="userSpaceOnUse"
       id="clipPath110">
      <path
         d="M 0,100 H 100 V 0 H 0 Z"
         transform="translate(-55.833301,-12.953298)"
         id="path110" />
    </clipPath>
    <clipPath
       clipPathUnits="userSpaceOnUse"
       id="clipPath112">
      <path
         d="M 0,100 H 100 V 0 H 0 Z"
         transform="translate(-32.499976,-12.953298)"
         id="path112" />
    </clipPath>
  </defs>
  <sodipodi:namedview
     id="namedview1"
     pagecolor="#ffffff"
     bordercolor="#000000"
     borderopacity="0.25"
     inkscape:showpageshadow="2"
     inkscape:pageopacity="0.0"
     inkscape:pagecheckerboard="0"
     inkscape:deskcolor="#d1d1d1"
     inkscape:zoom="3.9032296"
     inkscape:cx="2369.32"
     inkscape:cy="74.937943"
     inkscape:window-width="1516"
     inkscape:window-height="945"
     inkscape:window-x="0"
     inkscape:window-y="0"
     inkscape:window-maximized="1"
     inkscape:current-layer="layer-MC0">
    <inkscape:page
       x="0"
       y="0"
       inkscape:label="1"
       id="page1"
       width="133.33333"
       height="133.33333"
       margin="8.9316263 0 8.9315996"
       bleed="0" />
    <inkscape:page
       x="153.33333"
       y="0"
       inkscape:label="2"
       id="page2"
       width="133.33333"
       height="133.33333"
       margin="0 8.9316 0 8.93162667" />
    <inkscape:page
       x="306.66667"
       y="0"
       inkscape:label="3"
       id="page3"
       width="133.33333"
       height="133.33333"
       margin="16.66666667 0 16.66666667 0" />
    <inkscape:page
       x="460"
       y="0"
       inkscape:label="4"
       id="page5"
       width="133.33333"
       height="133.33333"
       margin="16.66666667 0 16.66666667 0" />
    <inkscape:page
       x="613.33333"
       y="0"
       inkscape:label="5"
       id="page9"
       width="133.33333"
       height="133.33333"
       margin="0 16.66666667 0 16.66666667" />
    <inkscape:page
       x="766.66667"
       y="0"
       inkscape:label="6"
       id="page12"
       width="133.33333"
       height="133.33333"
       margin="0 16.66666667 0 16.66666667" />
    <inkscape:page
       x="920"
       y="0"
       inkscape:label="7"
       id="page16"
       width="133.33333"
       height="133.33333"
       margin="13.5448 0 0 13.5448" />
    <inkscape:page
       x="1073.3333"
       y="0"
       inkscape:label="8"
       id="page18"
       width="133.33333"
       height="133.33333"
       margin="14.49266667 0 0 14.49266667" />
    <inkscape:page
       x="1226.6667"
       y="0"
       inkscape:label="9"
       id="page20"
       width="133.33333"
       height="133.33333"
       margin="1.82181333 0 0 1.82181333" />
    <inkscape:page
       x="1380"
       y="0"
       inkscape:label="10"
       id="page22"
       width="133.33333"
       height="133.33333"
       margin="0 16.6672 16.66666667 16.66613333" />
    <inkscape:page
       x="1533.3333"
       y="0"
       inkscape:label="11"
       id="page28"
       width="133.33333"
       height="133.33333"
       margin="0 16.66693333 53.04133333 16.6664" />
    <inkscape:page
       x="1686.6667"
       y="0"
       inkscape:label="12"
       id="page34"
       width="133.33333"
       height="133.33333"
       margin="0 16.66626667 16.66666667 16.66706667" />
    <inkscape:page
       x="1840"
       y="0"
       inkscape:label="13"
       id="page40"
       width="133.33333"
       height="133.33333"
       margin="8.88884 4.4412 8.88893333 4.44112" />
    <inkscape:page
       x="1993.3333"
       y="0"
       inkscape:label="14"
       id="page56"
       width="133.33333"
       height="133.33333"
       margin="8.88884 4.4412 8.88893333 4.44112" />
    <inkscape:page
       x="2146.6667"
       y="0"
       inkscape:label="15"
       id="page76"
       width="133.33333"
       height="133.33333"
       margin="4.44106667 8.88893333 4.4412 8.88888" />
    <inkscape:page
       x="2300"
       y="0"
       inkscape:label="16"
       id="page92"
       width="133.33333"
       height="133.33333"
       margin="4.44108 8.88893333 4.4412 8.88889333" />
    <inkscape:page
       x="2453.3333"
       y="0"
       inkscape:label="17"
       id="page112"
       width="133.33333"
       height="133.33333"
       margin="14.0048 13.0316 14.00493333 13.03161333" />
    <inkscape:page
       x="2606.6667"
       y="0"
       inkscape:label="18"
       id="page117"
       width="133.33333"
       height="133.33333"
       margin="14.0048 13.0316 14.00493333 13.03161333" />
    <inkscape:page
       x="2760"
       y="0"
       inkscape:label="19"
       id="page122"
       width="133.33333"
       height="133.33333"
       margin="14.0048 13.0316 14.00493333 13.03161333" />
    <inkscape:page
       x="2903.3333"
       y="0"
       width="133.33333"
       height="133.33333"
       id="page127"
       margin="133.33 13.03 14 25.35"
       bleed="0" />
  </sodipodi:namedview>
  <g
     id="layer-MC0"
     inkscape:groupmode="layer"
     inkscape:label="Layer 1">
    <path
       id="path1"
       d="M 0,0 -25,-43.301 0,-86.603 H 49.999 L 75,-43.301 49.999,0 Z"
       style="fill:#f2f2f2;fill-opacity:1;fill-rule:nonzero;stroke:none"
       transform="matrix(1.3333333,0,0,-1.3333333,33.3336,8.9317333)" />
    <path
       id="path2"
       d="M 0,0 -43.302,-25 V -75 L 0,-100 43.301,-75 v 50 z"
       style="fill:#f2f2f2;fill-opacity:1;fill-rule:nonzero;stroke:none"
       transform="matrix(1.3333333,0,0,-1.3333333,220.00053,1.3333333e-4)" />
    <path
       id="path3"
       d="m 0,0 h -26.943 l -13.472,-23.333 13.472,-23.334 H 0 l 13.471,23.334 z"
       style="fill:#f2f2f2;fill-opacity:1;fill-rule:nonzero;stroke:#f2f2f2;stroke-width:5;stroke-linecap:butt;stroke-linejoin:miter;stroke-miterlimit:10;stroke-dasharray:none;stroke-opacity:1"
       transform="matrix(1.3333333,0,0,-1.3333333,364.3524,20)" />
    <path
       id="path4"
       d="m 0,0 h -26.943 l -13.472,-23.333 13.472,-23.334 H 0 l 13.471,23.334 z"
       style="fill:none;stroke:#f2f2f2;stroke-width:5;stroke-linecap:butt;stroke-linejoin:miter;stroke-miterlimit:10;stroke-dasharray:none;stroke-opacity:1"
       transform="matrix(1.3333333,0,0,-1.3333333,418.2384,51.111067)"
       clip-path="url(#clipPath5)" />
    <path
       id="path6"
       d="M 0,0 H 26.943 L 40.415,-23.333 26.943,-46.667 H 0 l -13.471,23.334 z"
       style="fill:#f2f2f2;fill-opacity:1;fill-rule:nonzero;stroke:#f2f2f2;stroke-width:5;stroke-linecap:butt;stroke-linejoin:miter;stroke-miterlimit:10;stroke-dasharray:none;stroke-opacity:1;paint-order:stroke fill markers"
       transform="matrix(1.3333333,0,0,-1.3333333,535.6476,20)"
       clip-path="url(#clipPath7)" />
    <path
       id="path8"
       d="M 0,0 H 26.943 L 40.415,-23.333 26.943,-46.667 H 0 l -13.471,23.334 z"
       style="fill:none;stroke:#f2f2f2;stroke-width:5;stroke-linecap:butt;stroke-linejoin:miter;stroke-miterlimit:10;stroke-dasharray:none;stroke-opacity:1"
       transform="matrix(1.3333333,0,0,-1.3333333,481.7616,51.111067)"
       clip-path="url(#clipPath9)" />
    <path
       id="path10"
       d="m 0,0 v -26.943 l -23.333,-13.472 -23.334,13.472 V 0 l 23.334,13.472 z"
       style="fill:#f2f2f2;fill-opacity:1;fill-rule:nonzero;stroke:#f2f2f2;stroke-width:5;stroke-linecap:butt;stroke-linejoin:miter;stroke-miterlimit:10;stroke-dasharray:none;stroke-opacity:1"
       transform="matrix(1.3333333,0,0,-1.3333333,726.66667,75.647733)" />
    <path
       id="path11"
       d="m 0,0 v -26.943 l -23.333,-13.472 -23.334,13.472 V 0 l 23.334,13.472 z"
       style="fill:none;stroke:#f2f2f2;stroke-width:5;stroke-linecap:butt;stroke-linejoin:miter;stroke-miterlimit:10;stroke-dasharray:none;stroke-opacity:1"
       transform="matrix(1.3333333,0,0,-1.3333333,695.5556,21.7616)"
       clip-path="url(#clipPath12)" />
    <path
       id="path13"
       d="M 0,0 V 26.943 L -23.333,40.415 -46.667,26.943 V 0 l 23.334,-13.471 z"
       style="fill:#f2f2f2;fill-opacity:1;fill-rule:nonzero;stroke:#f2f2f2;stroke-width:5;stroke-linecap:butt;stroke-linejoin:miter;stroke-miterlimit:10;stroke-dasharray:none;stroke-opacity:1;paint-order:stroke fill markers"
       transform="matrix(1.3333333,0,0,-1.3333333,880,57.685733)"
       clip-path="url(#clipPath14)" />
    <path
       id="path15"
       d="M 0,0 V 26.943 L -23.333,40.415 -46.667,26.943 V 0 l 23.334,-13.471 z"
       style="fill:none;stroke:#f2f2f2;stroke-width:5;stroke-linecap:butt;stroke-linejoin:miter;stroke-miterlimit:10;stroke-dasharray:none;stroke-opacity:1"
       transform="matrix(1.3333333,0,0,-1.3333333,848.88893,111.57173)"
       clip-path="url(#clipPath16)" />
    <path
       id="path17"
       d="m 0,0 -77.55,-19.97 20.439,79.372"
       style="fill:none;stroke:#f2f2f2;stroke-width:45;stroke-linecap:butt;stroke-linejoin:round;stroke-miterlimit:10;stroke-dasharray:none;stroke-opacity:1"
       transform="matrix(1.3333333,0,0,-1.3333333,1066.9453,63.161333)"
       clip-path="url(#clipPath18)" />
    <path
       id="path19"
       d="m 0,0 -77.55,-19.97 20.029,77.778"
       style="fill:none;stroke:#f2f2f2;stroke-width:45;stroke-linecap:butt;stroke-linejoin:bevel;stroke-miterlimit:10;stroke-dasharray:none;stroke-opacity:1"
       transform="matrix(1.3333333,0,0,-1.3333333,1220.2787,63.161333)"
       clip-path="url(#clipPath20)" />
    <path
       id="path21"
       d="m 0,0 -79.997,-20.6 19.334,75.08"
       style="fill:none;stroke:#f2f2f2;stroke-width:45;stroke-linecap:butt;stroke-linejoin:miter;stroke-miterlimit:10;stroke-dasharray:none;stroke-opacity:1"
       transform="matrix(1.3333333,0,0,-1.3333333,1376.8739,62.321333)"
       clip-path="url(#clipPath22)" />
    <path
       id="path23"
       d="m 0,0 c 0,5.644 -4.575,10.219 -10.219,10.219 -5.644,0 -10.219,-4.575 -10.219,-10.219 0,-5.644 4.575,-10.219 10.219,-10.219 C -4.575,-10.219 0,-5.644 0,0"
       style="fill:#f2f2f2;fill-opacity:1;fill-rule:nonzero;stroke:none"
       transform="matrix(1.3333333,0,0,-1.3333333,1460.292,66.666667)"
       clip-path="url(#clipPath24)" />
    <path
       id="path25"
       d="m 0,0 c -5.644,0 -10.219,-4.575 -10.219,-10.219 0,-5.644 4.575,-10.219 10.219,-10.219 5.644,0 10.219,4.575 10.219,10.219 C 10.219,-4.575 5.644,0 0,0"
       style="fill:#f2f2f2;fill-opacity:1;fill-rule:nonzero;stroke:none"
       transform="matrix(1.3333333,0,0,-1.3333333,1446.6667,53.041333)"
       clip-path="url(#clipPath26)" />
    <path
       id="path27"
       d="m 0,0 c -10.046,0 -18.219,8.173 -18.219,18.219 0,10.046 8.173,18.219 18.219,18.219 10.046,0 18.219,-8.173 18.219,-18.219 C 18.219,8.173 10.046,0 0,0 m 0,55.719 c -20.711,0 -37.5,-16.789 -37.5,-37.5 v -50 c 0,-20.711 16.789,-37.5 37.5,-37.5 20.711,0 37.5,16.789 37.5,37.5 v 50 c 0,20.711 -16.789,37.5 -37.5,37.5"
       style="fill:#f2f2f2;fill-opacity:1;fill-rule:nonzero;stroke:none"
       transform="matrix(1.3333333,0,0,-1.3333333,1446.6667,90.958667)"
       clip-path="url(#clipPath28)" />
    <path
       id="path29"
       d="m 0,0 c 0,5.644 -4.575,10.219 -10.219,10.219 -5.644,0 -10.219,-4.575 -10.219,-10.219 0,-5.644 4.575,-10.219 10.219,-10.219 C -4.575,-10.219 0,-5.644 0,0"
       style="fill:#f2f2f2;fill-opacity:1;fill-rule:nonzero;stroke:none"
       transform="matrix(1.3333333,0,0,-1.3333333,1613.6253,66.666667)"
       clip-path="url(#clipPath30)" />
    <path
       id="path31"
       d="m 0,0 c 0,-10.046 -8.173,-18.219 -18.219,-18.219 -10.046,0 -18.219,8.173 -18.219,18.219 h -19.281 v -50 h 75 V 0 Z"
       style="fill:#f2f2f2;fill-opacity:1;fill-rule:nonzero;stroke:none"
       transform="matrix(1.3333333,0,0,-1.3333333,1624.292,66.6668)"
       clip-path="url(#clipPath32)" />
    <path
       id="path33"
       d="M 0,0 C 5.644,0 10.219,4.575 10.219,10.219 H -10.219 C -10.219,4.575 -5.644,0 0,0"
       style="fill:#f2f2f2;fill-opacity:1;fill-rule:nonzero;stroke:none"
       transform="matrix(1.3333333,0,0,-1.3333333,1600,80.291867)"
       clip-path="url(#clipPath34)" />
    <path
       id="path35"
       d="m 0,0 c 0,5.644 -4.575,10.219 -10.219,10.219 -5.644,0 -10.219,-4.575 -10.219,-10.219 0,-5.644 4.575,-10.219 10.219,-10.219 C -4.575,-10.219 0,-5.644 0,0"
       style="fill:#f2f2f2;fill-opacity:1;fill-rule:nonzero;stroke:none"
       transform="matrix(1.3333333,0,0,-1.3333333,1766.9587,66.666667)"
       clip-path="url(#clipPath36)" />
    <path
       id="path37"
       d="m 0,0 c -5.644,0 -10.219,-4.575 -10.219,-10.219 0,-5.644 4.575,-10.219 10.219,-10.219 5.644,0 10.219,4.575 10.219,10.219 C 10.219,-4.575 5.644,0 0,0"
       style="fill:#f2f2f2;fill-opacity:1;fill-rule:nonzero;stroke:none"
       transform="matrix(1.3333333,0,0,-1.3333333,1753.3333,53.041333)"
       clip-path="url(#clipPath38)" />
    <path
       id="path39"
       d="m 0,0 c -10.046,0 -18.219,8.173 -18.219,18.219 0,10.046 8.173,18.219 18.219,18.219 10.046,0 18.219,-8.173 18.219,-18.219 C 18.219,8.173 10.046,0 0,0 m -37.5,-69.281 h 75 v 125 h -75 z"
       style="fill:#f2f2f2;fill-opacity:1;fill-rule:nonzero;stroke:none"
       transform="matrix(1.3333333,0,0,-1.3333333,1753.3333,90.958667)"
       clip-path="url(#clipPath40)" />
    <path
       id="path41"
       d="m 0,0 h -13.472 l -6.735,-11.667 6.735,-11.666 H 0 l 6.736,11.666 z"
       style="fill:#f2f2f2;fill-opacity:1;fill-rule:nonzero;stroke:#f2f2f2;stroke-width:5;stroke-linecap:butt;stroke-linejoin:miter;stroke-miterlimit:10;stroke-dasharray:none;stroke-opacity:1"
       transform="matrix(1.3333333,0,0,-1.3333333,1875.2332,12.222267)" />
    <path
       id="path42"
       d="m 0,0 h -13.472 l -6.735,-11.667 6.735,-11.666 H 0 l 6.736,11.666 z"
       style="fill:#f2f2f2;fill-opacity:1;fill-rule:nonzero;stroke:#f2f2f2;stroke-width:5;stroke-linecap:butt;stroke-linejoin:miter;stroke-miterlimit:10;stroke-dasharray:none;stroke-opacity:1"
       transform="matrix(1.3333333,0,0,-1.3333333,1875.2332,43.333333)" />
    <path
       id="path43"
       d="m 0,0 h -13.472 l -6.735,-11.667 6.735,-11.666 H 0 l 6.736,11.666 z"
       style="fill:#f2f2f2;fill-opacity:1;fill-rule:nonzero;stroke:#f2f2f2;stroke-width:5;stroke-linecap:butt;stroke-linejoin:miter;stroke-miterlimit:10;stroke-dasharray:none;stroke-opacity:1"
       transform="matrix(1.3333333,0,0,-1.3333333,1875.2332,74.444533)" />
    <path
       id="path44"
       d="m 0,0 h -13.472 l -6.735,-11.667 6.735,-11.666 H 0 l 6.736,11.666 z"
       style="fill:#f2f2f2;fill-opacity:1;fill-rule:nonzero;stroke:#f2f2f2;stroke-width:5;stroke-linecap:butt;stroke-linejoin:miter;stroke-miterlimit:10;stroke-dasharray:none;stroke-opacity:1"
       transform="matrix(1.3333333,0,0,-1.3333333,1929.1192,12.222267)" />
    <path
       id="path45"
       d="m 0,0 h -13.472 l -6.735,-11.667 6.735,-11.666 H 0 l 6.736,11.666 z"
       style="fill:#f2f2f2;fill-opacity:1;fill-rule:nonzero;stroke:#f2f2f2;stroke-width:5;stroke-linecap:butt;stroke-linejoin:miter;stroke-miterlimit:10;stroke-dasharray:none;stroke-opacity:1"
       transform="matrix(1.3333333,0,0,-1.3333333,1929.1192,43.333333)" />
    <path
       id="path46"
       d="m 0,0 h -13.472 l -6.735,-11.667 6.735,-11.666 H 0 l 6.736,11.666 z"
       style="fill:#f2f2f2;fill-opacity:1;fill-rule:nonzero;stroke:#f2f2f2;stroke-width:5;stroke-linecap:butt;stroke-linejoin:miter;stroke-miterlimit:10;stroke-dasharray:none;stroke-opacity:1"
       transform="matrix(1.3333333,0,0,-1.3333333,1929.1192,74.444533)" />
    <path
       id="path47"
       d="m 0,0 h -13.472 l -6.735,-11.667 6.735,-11.666 H 0 l 6.736,11.666 z"
       style="fill:none;stroke:#f2f2f2;stroke-width:5;stroke-linecap:butt;stroke-linejoin:miter;stroke-miterlimit:10;stroke-dasharray:none;stroke-opacity:1"
       transform="matrix(1.3333333,0,0,-1.3333333,1902.1761,27.777867)" />
    <path
       id="path48"
       d="m 0,0 h -13.472 l -6.735,-11.667 6.735,-11.666 H 0 l 6.736,11.666 z"
       style="fill:none;stroke:#f2f2f2;stroke-width:5;stroke-linecap:butt;stroke-linejoin:miter;stroke-miterlimit:10;stroke-dasharray:none;stroke-opacity:1"
       transform="matrix(1.3333333,0,0,-1.3333333,1902.1761,58.888933)" />
    <path
       id="path49"
       d="m 0,0 h -13.472 l -6.735,-11.667 6.735,-11.666 H 0 l 6.736,11.666 z"
       style="fill:none;stroke:#f2f2f2;stroke-width:5;stroke-linecap:butt;stroke-linejoin:miter;stroke-miterlimit:10;stroke-dasharray:none;stroke-opacity:1"
       transform="matrix(1.3333333,0,0,-1.3333333,1902.1761,90)"
       clip-path="url(#clipPath50)" />
    <path
       id="path51"
       d="m 0,0 h -13.472 l -6.735,-11.667 6.735,-11.666 H 0 l 6.736,11.666 z"
       style="fill:none;stroke:#f2f2f2;stroke-width:5;stroke-linecap:butt;stroke-linejoin:miter;stroke-miterlimit:10;stroke-dasharray:none;stroke-opacity:1"
       transform="matrix(1.3333333,0,0,-1.3333333,1956.0621,27.777867)"
       clip-path="url(#clipPath52)" />
    <path
       id="path53"
       d="m 0,0 h -13.472 l -6.735,-11.667 6.735,-11.666 H 0 l 6.736,11.666 z"
       style="fill:none;stroke:#f2f2f2;stroke-width:5;stroke-linecap:butt;stroke-linejoin:miter;stroke-miterlimit:10;stroke-dasharray:none;stroke-opacity:1"
       transform="matrix(1.3333333,0,0,-1.3333333,1956.0621,58.888933)"
       clip-path="url(#clipPath54)" />
    <path
       id="path55"
       d="m 0,0 h -13.472 l -6.735,-11.667 6.735,-11.666 H 0 l 6.736,11.666 z"
       style="fill:none;stroke:#f2f2f2;stroke-width:5;stroke-linecap:butt;stroke-linejoin:miter;stroke-miterlimit:10;stroke-dasharray:none;stroke-opacity:1"
       transform="matrix(1.3333333,0,0,-1.3333333,1956.0621,90)"
       clip-path="url(#clipPath56)" />
    <path
       id="path57"
       d="m 0,0 h 13.472 l 6.735,-11.667 -6.735,-11.666 H 0 l -6.736,11.666 z"
       style="fill:none;stroke:#f2f2f2;stroke-width:5;stroke-linecap:butt;stroke-linejoin:miter;stroke-miterlimit:10;stroke-dasharray:none;stroke-opacity:1"
       transform="matrix(1.3333333,0,0,-1.3333333,2091.4335,12.222267)"
       clip-path="url(#clipPath58)" />
    <path
       id="path59"
       d="m 0,0 h 13.472 l 6.735,-11.667 -6.735,-11.666 H 0 l -6.736,11.666 z"
       style="fill:none;stroke:#f2f2f2;stroke-width:5;stroke-linecap:butt;stroke-linejoin:miter;stroke-miterlimit:10;stroke-dasharray:none;stroke-opacity:1"
       transform="matrix(1.3333333,0,0,-1.3333333,2091.4335,43.333333)"
       clip-path="url(#clipPath60)" />
    <path
       id="path61"
       d="m 0,0 h 13.472 l 6.735,-11.667 -6.735,-11.666 H 0 l -6.736,11.666 z"
       style="fill:none;stroke:#f2f2f2;stroke-width:5;stroke-linecap:butt;stroke-linejoin:miter;stroke-miterlimit:10;stroke-dasharray:none;stroke-opacity:1"
       transform="matrix(1.3333333,0,0,-1.3333333,2091.4335,74.444533)"
       clip-path="url(#clipPath62)" />
    <path
       id="path63"
       d="m 0,0 h 13.472 l 6.735,-11.667 -6.735,-11.666 H 0 l -6.736,11.666 z"
       style="fill:none;stroke:#f2f2f2;stroke-width:5;stroke-linecap:butt;stroke-linejoin:miter;stroke-miterlimit:10;stroke-dasharray:none;stroke-opacity:1"
       transform="matrix(1.3333333,0,0,-1.3333333,2037.5475,12.222267)"
       clip-path="url(#clipPath64)" />
    <path
       id="path65"
       d="m 0,0 h 13.472 l 6.735,-11.667 -6.735,-11.666 H 0 l -6.736,11.666 z"
       style="fill:none;stroke:#f2f2f2;stroke-width:5;stroke-linecap:butt;stroke-linejoin:miter;stroke-miterlimit:10;stroke-dasharray:none;stroke-opacity:1"
       transform="matrix(1.3333333,0,0,-1.3333333,2037.5475,43.333333)" />
    <path
       id="path66"
       d="m 0,0 h 13.472 l 6.735,-11.667 -6.735,-11.666 H 0 l -6.736,11.666 z"
       style="fill:none;fill-opacity:1;fill-rule:nonzero;stroke:#f2f2f2;stroke-width:5;stroke-linecap:butt;stroke-linejoin:miter;stroke-miterlimit:10;stroke-dasharray:none;stroke-opacity:1;paint-order:stroke fill markers"
       transform="matrix(1.3333333,0,0,-1.3333333,2037.5475,74.444533)" />
    <path
       id="path67"
       d="m 0,0 h 13.472 l 6.735,-11.667 -6.735,-11.666 H 0 l -6.736,11.666 z"
       style="fill:#f2f2f2;fill-opacity:1;fill-rule:nonzero;stroke:#f2f2f2;stroke-width:5;stroke-linecap:butt;stroke-linejoin:miter;stroke-miterlimit:10;stroke-dasharray:none;stroke-opacity:1;paint-order:stroke fill markers"
       transform="matrix(1.3333333,0,0,-1.3333333,2064.4905,27.777867)" />
    <path
       id="path68"
       d="m 0,0 h 13.472 l 6.735,-11.667 -6.735,-11.666 H 0 l -6.736,11.666 z"
       style="fill:#f2f2f2;fill-opacity:1;fill-rule:nonzero;stroke:#f2f2f2;stroke-width:5;stroke-linecap:butt;stroke-linejoin:miter;stroke-miterlimit:10;stroke-dasharray:none;stroke-opacity:1;paint-order:stroke fill markers"
       transform="matrix(1.3333333,0,0,-1.3333333,2064.4905,58.888933)" />
    <path
       id="path69"
       d="m 0,0 h 13.472 l 6.735,-11.667 -6.735,-11.666 H 0 l -6.736,11.666 z"
       style="fill:#f2f2f2;fill-opacity:1;fill-rule:nonzero;stroke:#f2f2f2;stroke-width:5;stroke-linecap:butt;stroke-linejoin:miter;stroke-miterlimit:10;stroke-dasharray:none;stroke-opacity:1;paint-order:stroke fill markers"
       transform="matrix(1.3333333,0,0,-1.3333333,2064.4905,90)"
       clip-path="url(#clipPath70)" />
    <path
       id="path71"
       d="m 0,0 h 13.472 l 6.735,-11.667 -6.735,-11.666 H 0 l -6.736,11.666 z"
       style="fill:#f2f2f2;fill-opacity:1;fill-rule:nonzero;stroke:#f2f2f2;stroke-width:5;stroke-linecap:butt;stroke-linejoin:miter;stroke-miterlimit:10;stroke-dasharray:none;stroke-opacity:1;paint-order:stroke fill markers"
       transform="matrix(1.3333333,0,0,-1.3333333,2010.6045,27.777867)"
       clip-path="url(#clipPath72)" />
    <path
       id="path73"
       d="m 0,0 h 13.472 l 6.735,-11.667 -6.735,-11.666 H 0 l -6.736,11.666 z"
       style="fill:#f2f2f2;fill-opacity:1;fill-rule:nonzero;stroke:#f2f2f2;stroke-width:5;stroke-linecap:butt;stroke-linejoin:miter;stroke-miterlimit:10;stroke-dasharray:none;stroke-opacity:1;paint-order:stroke fill markers"
       transform="matrix(1.3333333,0,0,-1.3333333,2010.6045,58.888933)"
       clip-path="url(#clipPath74)" />
    <path
       id="path75"
       d="m 0,0 h 13.472 l 6.735,-11.667 -6.735,-11.666 H 0 l -6.736,11.666 z"
       style="fill:#f2f2f2;stroke:#f2f2f2;stroke-width:5;stroke-linecap:butt;stroke-linejoin:miter;stroke-miterlimit:10;stroke-dasharray:none;stroke-opacity:1"
       transform="matrix(1.3333333,0,0,-1.3333333,2010.6045,90)"
       clip-path="url(#clipPath76)" />
    <path
       id="path77"
       d="m 0,0 v -13.471 l -11.667,-6.736 -11.666,6.736 V 0 l 11.666,6.736 z"
       style="fill:#f2f2f2;fill-opacity:1;fill-rule:nonzero;stroke:#f2f2f2;stroke-width:5;stroke-linecap:butt;stroke-linejoin:miter;stroke-miterlimit:10;stroke-dasharray:none;stroke-opacity:1"
       transform="matrix(1.3333333,0,0,-1.3333333,2267.7777,98.100267)" />
    <path
       id="path78"
       d="m 0,0 v -13.472 l -11.667,-6.735 -11.666,6.736 V 0 l 11.666,6.736 z"
       style="fill:#f2f2f2;fill-opacity:1;fill-rule:nonzero;stroke:#f2f2f2;stroke-width:5;stroke-linecap:butt;stroke-linejoin:miter;stroke-miterlimit:10;stroke-dasharray:none;stroke-opacity:1"
       transform="matrix(1.3333333,0,0,-1.3333333,2236.6667,98.100267)" />
    <path
       id="path79"
       d="m 0,0 v -13.472 l -11.667,-6.735 -11.666,6.735 V 0 l 11.666,6.736 z"
       style="fill:#f2f2f2;fill-opacity:1;fill-rule:nonzero;stroke:#f2f2f2;stroke-width:5;stroke-linecap:butt;stroke-linejoin:miter;stroke-miterlimit:10;stroke-dasharray:none;stroke-opacity:1"
       transform="matrix(1.3333333,0,0,-1.3333333,2205.5556,98.100267)" />
    <path
       id="path80"
       d="m 0,0 v -13.472 l -11.667,-6.735 -11.666,6.735 V 0 l 11.666,6.736 z"
       style="fill:#f2f2f2;fill-opacity:1;fill-rule:nonzero;stroke:#f2f2f2;stroke-width:5;stroke-linecap:butt;stroke-linejoin:miter;stroke-miterlimit:10;stroke-dasharray:none;stroke-opacity:1"
       transform="matrix(1.3333333,0,0,-1.3333333,2267.7777,44.214267)" />
    <path
       id="path81"
       d="m 0,0 v -13.472 l -11.667,-6.735 -11.666,6.736 V 0 l 11.666,6.736 z"
       style="fill:#f2f2f2;fill-opacity:1;fill-rule:nonzero;stroke:#f2f2f2;stroke-width:5;stroke-linecap:butt;stroke-linejoin:miter;stroke-miterlimit:10;stroke-dasharray:none;stroke-opacity:1"
       transform="matrix(1.3333333,0,0,-1.3333333,2236.6667,44.214267)" />
    <path
       id="path82"
       d="m 0,0 v -13.472 l -11.667,-6.735 -11.666,6.735 V 0 l 11.666,6.736 z"
       style="fill:#f2f2f2;fill-opacity:1;fill-rule:nonzero;stroke:#f2f2f2;stroke-width:5;stroke-linecap:butt;stroke-linejoin:miter;stroke-miterlimit:10;stroke-dasharray:none;stroke-opacity:1"
       transform="matrix(1.3333333,0,0,-1.3333333,2205.5556,44.214133)" />
    <path
       id="path83"
       d="m 0,0 v -13.472 l -11.667,-6.735 -11.666,6.736 V 0 l 11.666,6.736 z"
       style="fill:none;stroke:#f2f2f2;stroke-width:5;stroke-linecap:butt;stroke-linejoin:miter;stroke-miterlimit:10;stroke-dasharray:none;stroke-opacity:1"
       transform="matrix(1.3333333,0,0,-1.3333333,2252.2223,71.1572)" />
    <path
       id="path84"
       d="m 0,0 v -13.471 l -11.667,-6.736 -11.666,6.736 V 0 l 11.666,6.736 z"
       style="fill:none;stroke:#f2f2f2;stroke-width:5;stroke-linecap:butt;stroke-linejoin:miter;stroke-miterlimit:10;stroke-dasharray:none;stroke-opacity:1"
       transform="matrix(1.3333333,0,0,-1.3333333,2221.1111,71.1572)" />
    <path
       id="path85"
       d="m 0,0 v -13.472 l -11.667,-6.735 -11.666,6.736 V 0 l 11.666,6.736 z"
       style="fill:none;stroke:#f2f2f2;stroke-width:5;stroke-linecap:butt;stroke-linejoin:miter;stroke-miterlimit:10;stroke-dasharray:none;stroke-opacity:1"
       transform="matrix(1.3333333,0,0,-1.3333333,2190,71.1572)"
       clip-path="url(#clipPath86)" />
    <path
       id="path87"
       d="m 0,0 v -13.472 l -11.667,-6.735 -11.666,6.736 V 0 l 11.666,6.736 z"
       style="fill:none;stroke:#f2f2f2;stroke-width:5;stroke-linecap:butt;stroke-linejoin:miter;stroke-miterlimit:10;stroke-dasharray:none;stroke-opacity:1"
       transform="matrix(1.3333333,0,0,-1.3333333,2252.2223,17.2712)"
       clip-path="url(#clipPath88)" />
    <path
       id="path89"
       d="m 0,0 v -13.471 l -11.667,-6.736 -11.666,6.736 V 0 l 11.666,6.736 z"
       style="fill:none;stroke:#f2f2f2;stroke-width:5;stroke-linecap:butt;stroke-linejoin:miter;stroke-miterlimit:10;stroke-dasharray:none;stroke-opacity:1"
       transform="matrix(1.3333333,0,0,-1.3333333,2221.1112,17.2712)"
       clip-path="url(#clipPath90)" />
    <path
       id="path91"
       d="m 0,0 v -13.472 l -11.667,-6.735 -11.666,6.736 V 0 l 11.666,6.736 z"
       style="fill:none;stroke:#f2f2f2;stroke-width:5;stroke-linecap:butt;stroke-linejoin:miter;stroke-miterlimit:10;stroke-dasharray:none;stroke-opacity:1"
       transform="matrix(1.3333333,0,0,-1.3333333,2190,17.2712)"
       clip-path="url(#clipPath92)" />
    <path
       id="path93"
       d="m 0,0 v 13.471 l -11.667,6.736 -11.666,-6.736 V 0 l 11.666,-6.736 z"
       style="fill:none;stroke:#f2f2f2;stroke-width:5;stroke-linecap:butt;stroke-linejoin:miter;stroke-miterlimit:10;stroke-dasharray:none;stroke-opacity:1"
       transform="matrix(1.3333333,0,0,-1.3333333,2421.1111,35.2332)"
       clip-path="url(#clipPath94)" />
    <path
       id="path95"
       d="m 0,0 v 13.471 l -11.667,6.736 -11.666,-6.736 V 0 l 11.666,-6.736 z"
       style="fill:none;stroke:#f2f2f2;stroke-width:5;stroke-linecap:butt;stroke-linejoin:miter;stroke-miterlimit:10;stroke-dasharray:none;stroke-opacity:1"
       transform="matrix(1.3333333,0,0,-1.3333333,2390,35.2332)"
       clip-path="url(#clipPath96)" />
    <path
       id="path97"
       d="m 0,0 v 13.471 l -11.667,6.736 -11.666,-6.736 V 0 l 11.666,-6.736 z"
       style="fill:none;stroke:#f2f2f2;stroke-width:5;stroke-linecap:butt;stroke-linejoin:miter;stroke-miterlimit:10;stroke-dasharray:none;stroke-opacity:1"
       transform="matrix(1.3333333,0,0,-1.3333333,2358.8889,35.2332)"
       clip-path="url(#clipPath98)" />
    <path
       id="path99"
       d="m 0,0 v 13.471 l -11.667,6.736 -11.666,-6.736 V 0 l 11.666,-6.736 z"
       style="fill:none;stroke:#f2f2f2;stroke-width:5;stroke-linecap:butt;stroke-linejoin:miter;stroke-miterlimit:10;stroke-dasharray:none;stroke-opacity:1"
       transform="matrix(1.3333333,0,0,-1.3333333,2421.1111,89.1192)"
       clip-path="url(#clipPath100)" />
    <path
       id="path101"
       d="m 0,0 v 13.471 l -11.667,6.736 -11.666,-6.736 V 0 l 11.666,-6.736 z"
       style="fill:none;stroke:#f2f2f2;stroke-width:5;stroke-linecap:butt;stroke-linejoin:miter;stroke-miterlimit:10;stroke-dasharray:none;stroke-opacity:1"
       transform="matrix(1.3333333,0,0,-1.3333333,2390,89.1192)" />
    <path
       id="path102"
       d="m 0,0 v 13.471 l -11.667,6.736 -11.666,-6.736 V 0 l 11.666,-6.736 z"
       style="fill:none;fill-opacity:1;fill-rule:nonzero;stroke:#f2f2f2;stroke-width:5;stroke-linecap:butt;stroke-linejoin:miter;stroke-miterlimit:10;stroke-dasharray:none;stroke-opacity:1;paint-order:stroke fill markers"
       transform="matrix(1.3333333,0,0,-1.3333333,2358.8889,89.1192)" />
    <path
       id="path103"
       d="m 0,0 v 13.471 l -11.667,6.736 -11.666,-6.736 V 0 l 11.666,-6.736 z"
       style="fill:#f2f2f2;fill-opacity:1;fill-rule:nonzero;stroke:#f2f2f2;stroke-width:5;stroke-linecap:butt;stroke-linejoin:miter;stroke-miterlimit:10;stroke-dasharray:none;stroke-opacity:1;paint-order:stroke fill markers"
       transform="matrix(1.3333333,0,0,-1.3333333,2405.5556,62.176267)" />
    <path
       id="path104"
       d="m 0,0 v 13.471 l -11.667,6.736 -11.666,-6.736 V 0 l 11.666,-6.736 z"
       style="fill:#f2f2f2;fill-opacity:1;fill-rule:nonzero;stroke:#f2f2f2;stroke-width:5;stroke-linecap:butt;stroke-linejoin:miter;stroke-miterlimit:10;stroke-dasharray:none;stroke-opacity:1;paint-order:stroke fill markers"
       transform="matrix(1.3333333,0,0,-1.3333333,2374.4444,62.176267)" />
    <path
       id="path105"
       d="m 0,0 v 13.471 l -11.667,6.736 -11.666,-6.736 V 0 l 11.666,-6.736 z"
       style="fill:#f2f2f2;fill-opacity:1;fill-rule:nonzero;stroke:#f2f2f2;stroke-width:5;stroke-linecap:butt;stroke-linejoin:miter;stroke-miterlimit:10;stroke-dasharray:none;stroke-opacity:1;paint-order:stroke fill markers"
       transform="matrix(1.3333333,0,0,-1.3333333,2343.3333,62.176267)"
       clip-path="url(#clipPath106)" />
    <path
       id="path107"
       d="m 0,0 v 13.471 l -11.667,6.736 -11.666,-6.736 V 0 l 11.666,-6.736 z"
       style="fill:#f2f2f2;fill-opacity:1;fill-rule:nonzero;stroke:#f2f2f2;stroke-width:5;stroke-linecap:butt;stroke-linejoin:miter;stroke-miterlimit:10;stroke-dasharray:none;stroke-opacity:1;paint-order:stroke fill markers"
       transform="matrix(1.3333333,0,0,-1.3333333,2405.5556,116.06227)"
       clip-path="url(#clipPath108)" />
    <path
       id="path109"
       d="m 0,0 v 13.471 l -11.667,6.736 -11.666,-6.736 V 0 l 11.666,-6.736 z"
       style="fill:#f2f2f2;fill-opacity:1;fill-rule:nonzero;stroke:#f2f2f2;stroke-width:5;stroke-linecap:butt;stroke-linejoin:miter;stroke-miterlimit:10;stroke-dasharray:none;stroke-opacity:1;paint-order:stroke fill markers"
       transform="matrix(1.3333333,0,0,-1.3333333,2374.4444,116.06227)"
       clip-path="url(#clipPath110)" />
    <path
       id="path111"
       d="m 0,0 v 13.471 l -11.667,6.736 -11.666,-6.736 V 0 l 11.666,-6.736 z"
       style="fill:#f2f2f2;stroke:#f2f2f2;stroke-width:5;stroke-linecap:butt;stroke-linejoin:miter;stroke-miterlimit:10;stroke-dasharray:none;stroke-opacity:1"
       transform="matrix(1.3333333,0,0,-1.3333333,2343.3333,116.06227)"
       clip-path="url(#clipPath112)" />
    <path
       id="path113"
       d="M 0,0 H 74.453"
       style="fill:none;stroke:#f2f2f2;stroke-width:6;stroke-linecap:round;stroke-linejoin:miter;stroke-miterlimit:10;stroke-dasharray:none;stroke-opacity:1"
       transform="matrix(1.3333333,0,0,-1.3333333,2470.3649,18.0048)" />
    <path
       id="path114"
       d="M 0,0 H 74.453"
       style="fill:none;stroke:#f2f2f2;stroke-width:6;stroke-linecap:round;stroke-linejoin:miter;stroke-miterlimit:10;stroke-dasharray:none;stroke-opacity:1"
       transform="matrix(1.3333333,0,0,-1.3333333,2470.3649,42.335733)" />
    <path
       id="path115"
       d="M 0,0 H 58.781"
       style="fill:none;stroke:#f2f2f2;stroke-width:6;stroke-linecap:round;stroke-linejoin:miter;stroke-miterlimit:10;stroke-dasharray:none;stroke-opacity:1"
       transform="matrix(1.3333333,0,0,-1.3333333,2470.3649,66.666667)" />
    <path
       id="path116"
       d="M 0,0 H 45.156"
       style="fill:none;stroke:#f2f2f2;stroke-width:6;stroke-linecap:round;stroke-linejoin:miter;stroke-miterlimit:10;stroke-dasharray:none;stroke-opacity:1"
       transform="matrix(1.3333333,0,0,-1.3333333,2470.3649,90.9976)" />
    <path
       id="path117"
       d="M 0,0 H 23.988"
       style="fill:none;stroke:#f2f2f2;stroke-width:6;stroke-linecap:round;stroke-linejoin:miter;stroke-miterlimit:10;stroke-dasharray:none;stroke-opacity:1"
       transform="matrix(1.3333333,0,0,-1.3333333,2470.3649,115.32853)" />
    <path
       id="path118"
       d="M 0,0 H 74.453"
       style="fill:none;stroke:#f2f2f2;stroke-width:6;stroke-linecap:round;stroke-linejoin:miter;stroke-miterlimit:10;stroke-dasharray:none;stroke-opacity:1"
       transform="matrix(1.3333333,0,0,-1.3333333,2623.6983,18.0048)" />
    <path
       id="path119"
       d="M 0,0 H 74.453"
       style="fill:none;stroke:#f2f2f2;stroke-width:6;stroke-linecap:round;stroke-linejoin:miter;stroke-miterlimit:10;stroke-dasharray:none;stroke-opacity:1"
       transform="matrix(1.3333333,0,0,-1.3333333,2623.6983,42.335733)" />
    <path
       id="path120"
       d="M 0,0 H 58.781"
       style="fill:none;stroke:#f2f2f2;stroke-width:6;stroke-linecap:round;stroke-linejoin:miter;stroke-miterlimit:10;stroke-dasharray:none;stroke-opacity:1"
       transform="matrix(1.3333333,0,0,-1.3333333,2634.146,66.666667)" />
    <path
       id="path121"
       d="M 0,0 H 45.156"
       style="fill:none;stroke:#f2f2f2;stroke-width:6;stroke-linecap:round;stroke-linejoin:miter;stroke-miterlimit:10;stroke-dasharray:none;stroke-opacity:1"
       transform="matrix(1.3333333,0,0,-1.3333333,2643.2295,90.9976)" />
    <path
       id="path122"
       d="M 0,0 H 23.988"
       style="fill:none;stroke:#f2f2f2;stroke-width:6;stroke-linecap:round;stroke-linejoin:miter;stroke-miterlimit:10;stroke-dasharray:none;stroke-opacity:1"
       transform="matrix(1.3333333,0,0,-1.3333333,2657.3415,115.32853)" />
    <path
       id="path123"
       d="M 0,0 H -74.453"
       style="fill:none;stroke:#f2f2f2;stroke-width:6;stroke-linecap:round;stroke-linejoin:miter;stroke-miterlimit:10;stroke-dasharray:none;stroke-opacity:1"
       transform="matrix(1.3333333,0,0,-1.3333333,2876.3017,18.0048)" />
    <path
       id="path124"
       d="M 0,0 H -74.453"
       style="fill:none;stroke:#f2f2f2;stroke-width:6;stroke-linecap:round;stroke-linejoin:miter;stroke-miterlimit:10;stroke-dasharray:none;stroke-opacity:1"
       transform="matrix(1.3333333,0,0,-1.3333333,2876.3017,42.335733)" />
    <path
       id="path125"
       d="M 0,0 H -58.781"
       style="fill:none;stroke:#f2f2f2;stroke-width:6;stroke-linecap:round;stroke-linejoin:miter;stroke-miterlimit:10;stroke-dasharray:none;stroke-opacity:1"
       transform="matrix(1.3333333,0,0,-1.3333333,2876.3017,66.666667)" />
    <path
       id="path126"
       d="M 0,0 H -45.156"
       style="fill:none;stroke:#f2f2f2;stroke-width:6;stroke-linecap:round;stroke-linejoin:miter;stroke-miterlimit:10;stroke-dasharray:none;stroke-opacity:1"
       transform="matrix(1.3333333,0,0,-1.3333333,2876.3017,90.9976)" />
    <path
       id="path127"
       d="M 0,0 H -23.988"
       style="fill:none;stroke:#f2f2f2;stroke-width:6;stroke-linecap:round;stroke-linejoin:miter;stroke-miterlimit:10;stroke-dasharray:none;stroke-opacity:1"
       transform="matrix(1.3333333,0,0,-1.3333333,2876.3017,115.32853)" />
  </g>
</svg>
