<?xml version="1.0" encoding="utf-8"?><!-- Uploaded to: SVG Repo, www.svgrepo.com, Generator: SVG Repo Mixer Tools -->
<svg width="800px" height="800px" viewBox="0 0 24 24" fill="none" xmlns="http://www.w3.org/2000/svg">
<path d="M6 10H10.5C11.3284 10 12 9.32843 12 8.5V4" stroke="#999" stroke-width="1.5"/>
<path fill-rule="evenodd" clip-rule="evenodd" d="M9.85355 3.73223C10.3224 3.26339 10.9583 3 11.6213 3H16.5C17.8807 3 19 4.11929 19 5.5V18.5C19 19.8807 17.8807 21 16.5 21H7.5C6.11929 21 5 19.8807 5 18.5V9.62132C5 8.95828 5.26339 8.3224 5.73223 7.85355L9.85355 3.73223ZM11.6213 5C11.4887 5 11.3615 5.05268 11.2678 5.14645L7.14645 9.26777C7.05268 9.36154 7 9.48871 7 9.62132V18.5C7 18.7761 7.22386 19 7.5 19H16.5C16.7761 19 17 18.7761 17 18.5V5.5C17 5.22386 16.7761 5 16.5 5H11.6213Z" fill="#999"/>
<path d="M10 14.5H14M12 12.5V16.5" stroke="#999" stroke-width="1.5" stroke-linecap="round" stroke-linejoin="round"/>
</svg>