<?xml version="1.0" encoding="UTF-8"?><svg id="Layer_1" xmlns="http://www.w3.org/2000/svg" viewBox="0 0 500 500"><path d="m87.55,377.33c15.45,0,28.02,12.57,28.02,28.02s-12.57,28.02-28.02,28.02-28.02-12.57-28.02-28.02,12.57-28.02,28.02-28.02m0-30c-32.04,0-58.02,25.98-58.02,58.02s25.98,58.02,58.02,58.02,58.02-25.98,58.02-58.02-25.98-58.02-58.02-58.02h0Z" fill="#999"/><path d="m170.91,153.78c15.45,0,28.02,12.57,28.02,28.02s-12.57,28.02-28.02,28.02-28.02-12.57-28.02-28.02,12.57-28.02,28.02-28.02m0-30c-32.04,0-58.02,25.98-58.02,58.02s25.98,58.02,58.02,58.02,58.02-25.98,58.02-58.02-25.98-58.02-58.02-58.02h0Z" fill="#999"/><path d="m343,319.31c15.45,0,28.02,12.57,28.02,28.02s-12.57,28.02-28.02,28.02-28.02-12.57-28.02-28.02,12.57-28.02,28.02-28.02m0-30c-32.04,0-58.02,25.98-58.02,58.02s25.98,58.02,58.02,58.02,58.02-25.98,58.02-58.02-25.98-58.02-58.02-58.02h0Z" fill="#999"/><path d="m412.45,66.63c15.45,0,28.02,12.57,28.02,28.02s-12.57,28.02-28.02,28.02-28.02-12.57-28.02-28.02,12.57-28.02,28.02-28.02m0-30c-32.04,0-58.02,25.98-58.02,58.02s25.98,58.02,58.02,58.02,58.02-25.98,58.02-58.02-25.98-58.02-58.02-58.02h0Z" fill="#999"/><line x1="206.59" y1="207.16" x2="309.15" y2="313.7" fill="none" stroke="#999" stroke-miterlimit="10" stroke-width="45"/><line x1="101.67" y1="367.47" x2="156.46" y2="220.53" fill="none" stroke="#999" stroke-miterlimit="10" stroke-width="45"/><line x1="353.93" y1="308.62" x2="401.02" y2="139.08" fill="none" stroke="#999" stroke-miterlimit="10" stroke-width="45"/></svg>