<?xml version="1.0" encoding="UTF-8"?><svg id="Layer_1" xmlns="http://www.w3.org/2000/svg" viewBox="0 0 500 500"><rect x="115.99" y="180.67" width="267.14" height="277.33" fill="#999"/><path d="m315.79,93.71c9.37,0,17,7.63,17,17v127.68c0,9.37-7.63,17-17,17h-131.59c-9.37,0-17-7.63-17-17v-127.68c0-9.37,7.63-17,17-17h131.59m0-51.71h-131.59c-37.95,0-68.71,30.76-68.71,68.71v127.68c0,37.95,30.76,68.71,68.71,68.71h131.59c37.95,0,68.71-30.76,68.71-68.71v-127.68c0-37.95-30.76-68.71-68.71-68.71h0Z" fill="#999"/></svg>