<?xml version="1.0" encoding="UTF-8"?><svg id="Layer_1" xmlns="http://www.w3.org/2000/svg" viewBox="0 0 100 100"><path d="m61.31,24.12c-6.86,6.6-13.6,13.33-20.3,20.1-3.79,3.84-7.54,7.72-11.28,11.62-3.18,3.32-4.75,7.67-4.35,11.66.18,1.77-.22,3.31-1.26,4.35-1.15,1.15-2.89,1.51-4.88,1.2-3.05-.48-6.54,1.22-8.31,4.25-.01.02-.02.04-.04.06-1.67,2.92-3.77,6.56-3.3,9.84.59,4.12,4.59,6.27,8.92,4.81,2.23-.76,4.34-1.8,6.34-3.04,2.93-1.81,4.58-5.22,4.1-8.2-.32-2,.04-3.75,1.19-4.91,1.04-1.04,2.57-1.44,4.34-1.26,4.01.39,8.37-1.19,11.69-4.38,10.76-10.32,21.39-20.79,31.71-31.55l-14.57-14.57Z" fill="none" stroke="#999" stroke-miterlimit="10" stroke-width="5"/><rect x="45.86" y="22.91" width="45.48" height="18.66" rx="8" ry="8" transform="translate(42.88 -39.06) rotate(45)" fill="#999"/><rect x="57.94" y="12.99" width="36.15" height="22" rx="9.43" ry="9.43" transform="translate(5.3 60.78) rotate(-45)" fill="#999"/></svg>