<?xml version="1.0" encoding="UTF-8"?><svg id="Layer_1" xmlns="http://www.w3.org/2000/svg" viewBox="0 0 100 100"><rect x="23.67" y="36.24" width="52.76" height="54.77" fill="#999"/><path d="m62.93,19.15c1.84,0,3.34,1.5,3.34,3.34v25.09c0,1.84-1.5,3.34-3.34,3.34h-25.86c-1.84,0-3.34-1.5-3.34-3.34v-25.09c0-1.84,1.5-3.34,3.34-3.34h25.86m0-10.16h-25.86c-7.46,0-13.5,6.04-13.5,13.5v25.09c0,7.46,6.04,13.5,13.5,13.5h25.86c7.46,0,13.5-6.04,13.5-13.5v-25.09c0-7.46-6.04-13.5-13.5-13.5h0Z" fill="#999"/></svg>