<?xml version="1.0" encoding="utf-8"?>
<!-- Uploaded to: SVG Repo, www.svgrepo.com, Generator: SVG Repo Mixer Tools -->
<svg fill="#999" width="800px" height="800px" viewBox="0 0 32 32" version="1.1" xmlns="http://www.w3.org/2000/svg">
<title>moon-sun</title>
<path d="M30.994 13.84l-6.241-2.361 1.076-6.586-6.299 2.203-3.409-5.736-3.409 5.736-6.299-2.203 1.076 6.586-6.241 2.361 5.057 4.354-3.263 5.821 6.672 0.084 1.242 6.556 5.166-4.224 5.166 4.224 1.242-6.556 6.672-0.084-3.263-5.821 5.057-4.354zM16.472 25.494c-4.977 0-9.012-4.035-9.012-9.012s4.035-9.012 9.012-9.012c2.328 0 4.45 0.883 6.049 2.332-0.55-0.214-1.132-0.364-1.736-0.425-0.239-0.024-0.486 0-0.731 0-3.929 0-7.099 3.17-7.099 7.099s3.17 7.099 7.099 7.099c0.9 0 1.76-0.179 2.551-0.492-1.609 1.495-3.764 2.41-6.133 2.41z"></path>
</svg>