<?xml version="1.0" encoding="UTF-8"?><svg id="Layer_1" xmlns="http://www.w3.org/2000/svg" xmlns:xlink="http://www.w3.org/1999/xlink" viewBox="0 0 500 500"><defs><clipPath id="clippath"><rect x="52" y="-482.05" width="395" height="395" fill="none"/></clipPath><clipPath id="clippath-2"><polygon points="182.74 182.74 182.74 473.12 26.88 473.12 26.88 26.88 473.12 26.88 473.12 182.74 182.74 182.74" fill="none"/></clipPath></defs><g clip-path="url(#clippath)"><g><polygon points="375.5 -66.55 313 -66.55 281.75 -11.55 313 43.45 375.5 43.45 406.75 -11.55 375.5 -66.55" fill="none" stroke="#999" stroke-miterlimit="10" stroke-width="10"/><polygon points="188 -66.55 125.5 -66.55 94.25 -11.55 125.5 43.45 188 43.45 219.25 -11.55 188 -66.55" fill="none" stroke="#999" stroke-miterlimit="10" stroke-width="10"/></g></g><g><rect x="205.24" y="205.24" width="267.89" height="267.89" fill="#999"/><g clip-path="url(#clippath-2)"><g id="Terrain"><path d="m268.48,95.45c.08,0,.16.04.2.12l63.25,109.55c.04.07.04.16,0,.24l-63.25,109.55c-.04.07-.12.12-.2.12h-126.5c-.08,0-.16-.05-.2-.12l-63.25-109.55c-.04-.07-.04-.16,0-.24l63.25-109.55c.04-.07.12-.12.2-.12h126.5m0-45h-126.5c-16.16,0-31.09,8.62-39.17,22.62l-63.25,109.55c-8.08,14-8.08,31.24,0,45.24l63.25,109.55c8.08,14,23.01,22.62,39.17,22.62h126.5c16.16,0,31.09-8.62,39.17-22.62l63.25-109.55c8.08-14,8.08-31.24,0-45.24l-63.25-109.55c-8.08-14-23.01-22.62-39.17-22.62h0Z" fill="#999"/></g></g></g></svg>