<?xml version="1.0" encoding="UTF-8"?><svg id="Layer_1" xmlns="http://www.w3.org/2000/svg" viewBox="0 0 100 100"><path d="m81.26,17.5v56.59c0,4.91-3.98,8.88-8.88,8.88h-33.97c-4.91,0-8.88-3.98-8.88-8.88V24.64c0-3.94-3.19-7.14-7.14-7.14s-7.14,3.19-7.14,7.14" fill="none" stroke="#999" stroke-linecap="round" stroke-miterlimit="10" stroke-width="7"/><path d="m29.56,30.3v43.57c0,5.59,4.54,10.13,10.13,10.13h31.96c5.59,0,10.13-4.54,10.13-10.13V30.3H29.56Zm14.31,43.8c0,1.93-1.57,3.5-3.5,3.5s-3.5-1.57-3.5-3.5v-33.29c0-1.93,1.57-3.5,3.5-3.5s3.5,1.57,3.5,3.5v33.29Z" fill="#999"/></svg>