<?xml version="1.0" encoding="UTF-8"?><svg id="Layer_1" xmlns="http://www.w3.org/2000/svg" viewBox="0 0 100 100"><line x1="40.54" y1="59.46" x2="59.46" y2="40.54" fill="none" stroke="#8cc63f" stroke-linecap="round" stroke-miterlimit="10" stroke-width="6"/><line x1="40.54" y1="40.54" x2="59.46" y2="59.46" fill="none" stroke="#8cc63f" stroke-linecap="round" stroke-miterlimit="10" stroke-width="6"/><g><path d="m25,87.01c0,2,1.63,3.63,3.63,3.63s3.63-1.63,3.63-3.63-1.63-3.63-3.63-3.63-3.63,1.63-3.63,3.63Z" fill="#999"/><path d="m7.26,42.37c2.9,0,5.42,1.62,6.71,4l14.87-25.76c-.07,0-.14.01-.22.01-2.9,0-5.42-1.62-6.71-4l-14.87,25.76c.07,0,.14-.01.22-.01Z" fill="#999"/><path d="m28.63,9.35c-2,0-3.63,1.63-3.63,3.63s1.63,3.63,3.63,3.63,3.63-1.63,3.63-3.63-1.63-3.63-3.63-3.63Z" fill="#999"/><circle cx="71.37" cy="12.99" r="3.63" fill="#999"/><circle cx="71.37" cy="87.01" r="3.63" fill="#999"/><path d="m35.12,8.99c.72,1.16,1.14,2.53,1.14,4s-.42,2.84-1.14,4h29.76c-.72-1.16-1.14-2.53-1.14-4s.42-2.84,1.14-4h-29.76Z" fill="#999"/><path d="m92.74,57.63c-2.9,0-5.42-1.62-6.71-4l-14.87,25.76c.07,0,.14-.01.22-.01,2.9,0,5.42,1.62,6.71,4l14.87-25.76c-.07,0-.14.01-.22.01Z" fill="#999"/><path d="m10.89,50c0-2-1.63-3.63-3.63-3.63s-3.63,1.63-3.63,3.63,1.63,3.63,3.63,3.63,3.63-1.63,3.63-3.63Z" fill="#999"/><path d="m71.37,20.62c-.07,0-.15,0-.22-.01l14.87,25.76c1.29-2.38,3.82-4,6.71-4,.07,0,.15,0,.22.01l-14.87-25.76c-1.29,2.38-3.82,4-6.71,4Z" fill="#999"/><path d="m89.11,50c0,2,1.63,3.63,3.63,3.63s3.63-1.63,3.63-3.63-1.63-3.63-3.63-3.63-3.63,1.63-3.63,3.63Z" fill="#999"/><path d="m28.63,79.38c.07,0,.15,0,.22.01l-14.87-25.76c-1.29,2.38-3.82,4-6.71,4-.07,0-.15,0-.22-.01l14.87,25.76c1.29-2.38,3.82-4,6.71-4Z" fill="#999"/><path d="m64.88,91.01c-.72-1.16-1.14-2.53-1.14-4s.42-2.84,1.14-4h-29.76c.72,1.16,1.14,2.53,1.14,4s-.42,2.84-1.14,4h29.76Z" fill="#999"/></g></svg>