<?xml version="1.0" encoding="UTF-8"?><svg id="Layer_1" xmlns="http://www.w3.org/2000/svg" xmlns:xlink="http://www.w3.org/1999/xlink" viewBox="0 0 500 500"><defs><clipPath id="clippath"><rect x="52" y="575" width="395" height="395" fill="none"/></clipPath></defs><g clip-path="url(#clippath)"><g><polygon points="281.75 495.5 219.25 495.5 188 550.5 219.25 605.5 281.75 605.5 313 550.5 281.75 495.5" fill="none" stroke="#999" stroke-miterlimit="10" stroke-width="10"/><polygon points="94.25 495.5 31.75 495.5 .5 550.5 31.75 605.5 94.25 605.5 125.5 550.5 94.25 495.5" fill="none" stroke="#999" stroke-miterlimit="10" stroke-width="10"/><polygon points="469.25 495.5 406.75 495.5 375.5 550.5 406.75 605.5 469.25 605.5 500.5 550.5 469.25 495.5" fill="none" stroke="#999" stroke-miterlimit="10" stroke-width="10"/></g></g><path d="m250,459h100.85s0-37.85,0-37.85h-16.58c-19.8,0-33.85-4.8-42.14-14.39-5.06-5.9-7.6-19.37-7.6-40.41V106.62h24.3c21.88,0,37.42,1.29,46.62,3.87,11.98,3.51,22.22,10.24,30.74,20.2,8.52,9.96,13.59,23.44,15.2,40.41h45.12s-5.53-129.11-5.53-129.11h-190.99s-.48,0-.48,0H58.53l-5.53,129.11h45.12c1.61-16.97,6.68-30.44,15.2-40.41,8.52-9.96,18.76-16.7,30.74-20.2,9.2-2.58,24.75-3.87,46.62-3.87h24.3v259.73c0,21.03-2.54,34.51-7.6,40.41-8.29,9.6-22.34,14.39-42.14,14.39h-16.58v37.85h100.85" fill="#999"/></svg>